<svg width="461" height="121" viewBox="0 0 461 121" fill="none" xmlns="http://www.w3.org/2000/svg">
<path d="M32.688 95.432C28.1653 95.432 24.1973 94.8773 20.784 93.768C17.456 92.6587 14.5973 91.336 12.208 89.8C9.904 88.1787 8.06933 86.6 6.704 85.064C5.33867 83.528 4.4 82.376 3.888 81.608C2.43733 79.7307 1.54133 78.1093 1.2 76.744C0.858667 75.2933 1.02933 73.8427 1.712 72.392C2.48 70.9413 3.76 69.3627 5.552 67.656C7.344 66.12 9.008 65.3093 10.544 65.224C12.1653 65.0533 13.744 65.4373 15.28 66.376C16.816 67.3147 18.3093 68.6373 19.76 70.344C21.808 72.8187 23.8133 74.568 25.776 75.592C27.824 76.5307 29.9573 77 32.176 77C34.992 77 37.3813 76.6587 39.344 75.976C41.3067 75.2933 42.8 74.2267 43.824 72.776C44.848 71.24 45.36 69.32 45.36 67.016C45.36 65.1387 44.6347 63.6453 43.184 62.536C41.8187 61.3413 39.9413 60.3173 37.552 59.464C35.248 58.6107 32.6453 57.8 29.744 57.032C26.928 56.1787 24.112 55.1973 21.296 54.088C19.3333 53.4053 17.456 52.552 15.664 51.528C13.872 50.504 12.1653 49.352 10.544 48.072C8.92267 46.792 7.51467 45.256 6.32 43.464C5.21067 41.672 4.31467 39.624 3.632 37.32C3.03467 35.016 2.736 32.3707 2.736 29.384C2.736 24.3493 3.97333 19.8693 6.448 15.944C8.92267 12.0187 12.336 8.94667 16.688 6.728C21.1253 4.424 26.2027 3.272 31.92 3.272C35.76 3.272 39.088 3.61333 41.904 4.296C44.8053 4.97866 47.2373 5.78933 49.2 6.728C51.1627 7.66666 52.6987 8.60533 53.808 9.544C55.0027 10.3973 55.8133 11.08 56.24 11.592C58.6293 13.8107 59.952 15.7307 60.208 17.352C60.464 18.888 59.568 21.064 57.52 23.88C55.3867 26.8667 53.2533 28.5307 51.12 28.872C49.072 29.2133 46.7253 28.488 44.08 26.696C43.056 25.7573 42.032 24.904 41.008 24.136C39.984 23.368 38.7467 22.7707 37.296 22.344C35.9307 21.832 34.096 21.576 31.792 21.576C30.4267 21.576 29.1467 21.7893 27.952 22.216C26.7573 22.5573 25.7333 23.0693 24.88 23.752C24.0267 24.4347 23.344 25.288 22.832 26.312C22.32 27.2507 22.064 28.3173 22.064 29.512C22.064 31.4747 22.704 33.0533 23.984 34.248C25.3493 35.4427 27.0987 36.424 29.232 37.192C31.4507 37.8747 33.8827 38.5573 36.528 39.24C39.2587 39.8373 42.032 40.5627 44.848 41.416C47.408 42.2693 49.8827 43.336 52.272 44.616C54.6613 45.8107 56.7947 47.3467 58.672 49.224C60.5493 51.1013 62.0427 53.448 63.152 56.264C64.3467 59.08 64.944 62.536 64.944 66.632C64.944 71.752 63.9627 76.1467 62 79.816C60.0373 83.4853 57.4347 86.472 54.192 88.776C50.9493 91.08 47.4507 92.744 43.696 93.768C39.9413 94.8773 36.272 95.432 32.688 95.432ZM82.211 94.152C79.139 94.152 76.9203 93.7253 75.555 92.872C74.1897 91.9333 73.3363 90.7387 72.995 89.288C72.739 87.752 72.611 86.1307 72.611 84.424V10.696C72.611 8.98933 72.7817 7.41066 73.123 5.96C73.4643 4.50933 74.3177 3.35733 75.683 2.504C77.0483 1.56533 79.267 1.09599 82.339 1.09599C85.4963 1.09599 87.715 1.56533 88.995 2.504C90.3603 3.44266 91.171 4.63733 91.427 6.088C91.7683 7.53866 91.939 9.11733 91.939 10.824V36.936C93.475 35.3147 95.4377 33.7787 97.827 32.328C100.302 30.8773 103.203 30.152 106.531 30.152C111.822 30.152 116.558 31.5173 120.739 34.248C125.006 36.8933 128.376 40.5627 130.851 45.256C133.411 49.9493 134.691 55.3253 134.691 61.384V84.552C134.691 86.2587 134.52 87.8373 134.179 89.288C133.838 90.7387 133.027 91.9333 131.747 92.872C130.467 93.7253 128.206 94.152 124.963 94.152C121.976 94.152 119.758 93.7253 118.307 92.872C116.942 91.9333 116.088 90.7387 115.747 89.288C115.491 87.752 115.363 86.1307 115.363 84.424V61.256C115.363 58.7813 114.936 56.6907 114.083 54.984C113.23 53.192 111.95 51.784 110.243 50.76C108.622 49.736 106.616 49.224 104.227 49.224C101.07 49.224 98.2963 50.2053 95.907 52.168C93.603 54.0453 92.2803 56.3493 91.939 59.08V84.552C91.939 86.2587 91.7683 87.8373 91.427 89.288C91.0857 90.7387 90.2323 91.9333 88.867 92.872C87.587 93.7253 85.3683 94.152 82.211 94.152ZM174.468 95.176C170.457 95.176 166.447 94.408 162.436 92.872C158.511 91.2507 154.927 88.9893 151.684 86.088C148.441 83.1867 145.881 79.7307 144.004 75.72C142.127 71.624 141.188 67.1013 141.188 62.152C141.188 57.544 142.041 53.2773 143.748 49.352C145.455 45.3413 147.844 41.8 150.916 38.728C153.988 35.656 157.487 33.2667 161.412 31.56C165.423 29.768 169.689 28.872 174.212 28.872C180.356 28.872 185.903 30.3653 190.852 33.352C195.887 36.2533 199.897 40.2213 202.884 45.256C205.871 50.2907 207.364 55.88 207.364 62.024C207.364 67.2293 206.383 71.88 204.42 75.976C202.543 79.9867 199.983 83.4427 196.74 86.344C193.583 89.2453 190.041 91.464 186.116 93C182.276 94.4507 178.393 95.176 174.468 95.176ZM174.212 75.848C176.26 75.848 178.351 75.336 180.484 74.312C182.617 73.288 184.409 71.752 185.86 69.704C187.311 67.656 188.036 65.0533 188.036 61.896C188.036 59.1653 187.439 56.776 186.244 54.728C185.049 52.68 183.385 51.1013 181.252 49.992C179.204 48.7973 176.815 48.2 174.084 48.2C171.524 48.2 169.22 48.7973 167.172 49.992C165.209 51.1867 163.588 52.8507 162.308 54.984C161.113 57.032 160.516 59.3787 160.516 62.024C160.516 65.096 161.199 67.6987 162.564 69.832C164.015 71.88 165.807 73.416 167.94 74.44C170.073 75.3787 172.164 75.848 174.212 75.848ZM248.784 93C244.603 93 240.891 92.1893 237.648 90.568C234.491 88.8613 231.845 86.6 229.712 83.784C227.664 80.8827 226.085 77.5547 224.976 73.8C223.952 70.0453 223.483 65.992 223.568 61.64C223.568 57.4587 224.123 53.4907 225.232 49.736C226.341 45.896 227.92 42.5253 229.968 39.624C232.101 36.6373 234.704 34.3333 237.776 32.712C240.933 31.0053 244.603 30.152 248.784 30.152C252.539 30.152 256.165 31.0053 259.664 32.712C263.248 34.4187 266.405 36.7653 269.136 39.752C271.867 42.6533 274 46.024 275.536 49.864C277.157 53.704 277.968 57.7573 277.968 62.024C277.968 66.2907 277.157 70.344 275.536 74.184C274 77.9387 271.867 81.224 269.136 84.04C266.405 86.856 263.291 89.0747 259.792 90.696C256.293 92.232 252.624 93 248.784 93ZM224.08 120.648C221.008 120.648 218.789 120.179 217.424 119.24C216.144 118.387 215.333 117.235 214.992 115.784C214.736 114.419 214.608 112.925 214.608 111.304V39.752C214.608 38.0453 214.736 36.5093 214.992 35.144C215.248 33.6933 216.016 32.4987 217.296 31.56C218.661 30.6213 220.88 30.152 223.952 30.152C226.597 30.152 228.688 30.536 230.224 31.304C231.845 32.072 232.997 33.2667 233.68 34.888V111.176C233.765 112.797 233.637 114.333 233.296 115.784C232.955 117.235 232.101 118.387 230.736 119.24C229.456 120.179 227.237 120.648 224.08 120.648ZM246.096 74.952C248.485 74.952 250.619 74.3973 252.496 73.288C254.373 72.0933 255.867 70.5147 256.976 68.552C258.171 66.5893 258.768 64.4133 258.768 62.024C258.768 59.5493 258.213 57.3733 257.104 55.496C255.995 53.5333 254.501 51.9973 252.624 50.888C250.747 49.7787 248.613 49.224 246.224 49.224C243.92 49.224 241.787 49.8213 239.824 51.016C237.947 52.1253 236.453 53.6613 235.344 55.624C234.32 57.5013 233.808 59.6347 233.808 62.024C233.808 64.4133 234.363 66.5893 235.472 68.552C236.581 70.5147 238.075 72.0933 239.952 73.288C241.829 74.3973 243.877 74.952 246.096 74.952ZM319.409 93C315.228 93 311.516 92.1893 308.273 90.568C305.116 88.8613 302.47 86.6 300.337 83.784C298.289 80.8827 296.71 77.5547 295.601 73.8C294.577 70.0453 294.108 65.992 294.193 61.64C294.193 57.4587 294.748 53.4907 295.857 49.736C296.966 45.896 298.545 42.5253 300.593 39.624C302.726 36.6373 305.329 34.3333 308.401 32.712C311.558 31.0053 315.228 30.152 319.409 30.152C323.164 30.152 326.79 31.0053 330.289 32.712C333.873 34.4187 337.03 36.7653 339.761 39.752C342.492 42.6533 344.625 46.024 346.161 49.864C347.782 53.704 348.593 57.7573 348.593 62.024C348.593 66.2907 347.782 70.344 346.161 74.184C344.625 77.9387 342.492 81.224 339.761 84.04C337.03 86.856 333.916 89.0747 330.417 90.696C326.918 92.232 323.249 93 319.409 93ZM294.705 120.648C291.633 120.648 289.414 120.179 288.049 119.24C286.769 118.387 285.958 117.235 285.617 115.784C285.361 114.419 285.233 112.925 285.233 111.304V39.752C285.233 38.0453 285.361 36.5093 285.617 35.144C285.873 33.6933 286.641 32.4987 287.921 31.56C289.286 30.6213 291.505 30.152 294.577 30.152C297.222 30.152 299.313 30.536 300.849 31.304C302.47 32.072 303.622 33.2667 304.305 34.888V111.176C304.39 112.797 304.262 114.333 303.921 115.784C303.58 117.235 302.726 118.387 301.361 119.24C300.081 120.179 297.862 120.648 294.705 120.648ZM316.721 74.952C319.11 74.952 321.244 74.3973 323.121 73.288C324.998 72.0933 326.492 70.5147 327.601 68.552C328.796 66.5893 329.393 64.4133 329.393 62.024C329.393 59.5493 328.838 57.3733 327.729 55.496C326.62 53.5333 325.126 51.9973 323.249 50.888C321.372 49.7787 319.238 49.224 316.849 49.224C314.545 49.224 312.412 49.8213 310.449 51.016C308.572 52.1253 307.078 53.6613 305.969 55.624C304.945 57.5013 304.433 59.6347 304.433 62.024C304.433 64.4133 304.988 66.5893 306.097 68.552C307.206 70.5147 308.7 72.0933 310.577 73.288C312.454 74.3973 314.502 74.952 316.721 74.952ZM408.722 94.024C405.565 94.024 403.218 93.4693 401.682 92.36C400.231 91.2507 399.506 89.8853 399.506 88.264L400.786 86.088C400.274 86.9413 399.293 88.008 397.842 89.288C396.391 90.4827 394.514 91.592 392.21 92.616C389.906 93.5547 387.047 94.024 383.634 94.024C379.709 94.024 375.954 93.1707 372.37 91.464C368.871 89.7573 365.757 87.4107 363.026 84.424C360.295 81.352 358.119 77.896 356.498 74.056C354.962 70.216 354.194 66.1627 354.194 61.896C354.194 57.7147 354.962 53.7467 356.498 49.992C358.119 46.152 360.295 42.7813 363.026 39.88C365.842 36.8933 368.999 34.5467 372.498 32.84C375.997 31.1333 379.709 30.28 383.634 30.28C386.791 30.28 389.479 30.7493 391.698 31.688C393.917 32.5413 395.751 33.5653 397.202 34.76C398.738 35.9547 399.89 37.1067 400.658 38.216L399.634 36.424C399.549 34.376 400.231 32.84 401.682 31.816C403.218 30.7067 405.607 30.152 408.85 30.152C411.922 30.152 414.098 30.6213 415.378 31.56C416.743 32.4987 417.554 33.736 417.81 35.272C418.151 36.808 418.322 38.4293 418.322 40.136V84.296C418.322 85.9173 418.151 87.496 417.81 89.032C417.554 90.568 416.743 91.8053 415.378 92.744C414.098 93.5973 411.879 94.024 408.722 94.024ZM386.45 74.952C388.669 74.952 390.674 74.3973 392.466 73.288C394.343 72.0933 395.794 70.5147 396.818 68.552C397.927 66.5893 398.482 64.4133 398.482 62.024C398.482 59.5493 397.927 57.3733 396.818 55.496C395.709 53.5333 394.215 51.9973 392.338 50.888C390.461 49.6933 388.413 49.096 386.194 49.096C383.719 49.096 381.501 49.6933 379.538 50.888C377.661 52.0827 376.125 53.6613 374.93 55.624C373.821 57.5867 373.266 59.8053 373.266 62.28C373.266 64.584 373.821 66.7173 374.93 68.68C376.125 70.5573 377.703 72.0933 379.666 73.288C381.714 74.3973 383.975 74.952 386.45 74.952ZM453.199 94.152C449.7 94.152 446.586 93.9387 443.855 93.512C441.21 93.1707 438.906 92.488 436.943 91.464C435.066 90.44 433.53 89.032 432.335 87.24C431.14 85.448 430.244 83.144 429.647 80.328C429.135 77.4267 428.879 73.8853 428.879 69.704V10.568C428.879 8.86133 429.007 7.28266 429.263 5.83199C429.604 4.38133 430.458 3.18666 431.823 2.24799C433.188 1.30933 435.407 0.839996 438.479 0.839996C441.551 0.839996 443.727 1.30933 445.007 2.24799C446.372 3.18666 447.226 4.38133 447.567 5.83199C447.908 7.28266 448.079 8.86133 448.079 10.568V68.808C448.079 70.1733 448.122 71.3253 448.207 72.264C448.378 73.1173 448.634 73.8 448.975 74.312C449.402 74.824 449.956 75.1653 450.639 75.336C451.322 75.5067 452.218 75.592 453.327 75.592C454.351 75.592 455.375 75.72 456.399 75.976C457.508 76.232 458.447 77 459.215 78.28C459.983 79.56 460.367 81.6933 460.367 84.68C460.367 87.752 459.983 89.9707 459.215 91.336C458.447 92.7013 457.508 93.512 456.399 93.768C455.375 94.024 454.308 94.152 453.199 94.152Z" fill="black"/>
</svg>
